<?xml version="1.0" encoding="utf-8"?>
<!-- Generator: Adobe Illustrator 22.1.0, SVG Export Plug-In . SVG Version: 6.00 Build 0)  -->
<svg version="1.1" id="Capa_1" xmlns="http://www.w3.org/2000/svg" xmlns:xlink="http://www.w3.org/1999/xlink" x="0px" y="0px"
	 viewBox="0 0 310 310" style="enable-background:new 0 0 310 310;" xml:space="preserve">
<style type="text/css">
	.st0{fill:#FA3D5A;}
	.st1{fill:#FFFFFF;}
	.st2{fill:#23A3E2;}
	.st3{fill:#3D0059;}
</style>
<g id="Layer_1">
</g>
<g id="Layer_2">
	<g id="timer_1_">
		<g>
			<ellipse class="st0" cx="158.9" cy="180.4" rx="116" ry="116"/>
			<ellipse class="st1" cx="155" cy="178" rx="101" ry="101"/>
			<ellipse class="st2" cx="161.3" cy="178.1" rx="97.6" ry="97.6"/>
		</g>
		<g id="timer">
			<path class="st3" d="M69.7,255.4c-2.2-2.4-4.2-4.9-6.2-7.4c-1.6-2.1-4.7-2.5-6.8-0.9s-2.5,4.7-0.9,6.8c2.1,2.8,4.4,5.5,6.7,8.1
				c1,1.1,2.3,1.6,3.6,1.6c1.2,0,2.3-0.4,3.3-1.3C71.4,260.5,71.5,257.4,69.7,255.4z"/>
			<path class="st3" d="M155,53.6c-68.7,0-124.7,55.9-124.7,124.7c0,22.5,6.1,44.6,17.6,63.9c1.4,2.3,4.4,3.1,6.7,1.7
				c2.3-1.4,3.1-4.4,1.7-6.7C45.6,219.4,40,199.1,40,178.3c0-63.4,51.6-115,115-115s115,51.6,115,115s-51.6,115-115,115
				c-28.4,0-55.7-10.4-76.8-29.4c-2-1.8-5.1-1.6-6.9,0.4s-1.6,5.1,0.4,6.8C94.6,291.7,124.2,303,155,303
				c68.7,0,124.7-55.9,124.7-124.7S223.7,53.6,155,53.6z"/>
			<path class="st3" d="M208.8,92.3c0.8-1.4,0.4-3.2-1-4C191.9,78.9,173.6,74,155,74C97.5,74,50.7,120.8,50.7,178.3
				S97.5,282.6,155,282.6s104.3-46.8,104.3-104.3c0-23.5-7.6-45.6-22-64.1c-1-1.3-2.8-1.5-4.1-0.5s-1.5,2.8-0.5,4.1
				c13.6,17.4,20.8,38.4,20.8,60.5c0,54.3-44.2,98.5-98.5,98.5s-98.5-44.2-98.5-98.5s44.2-98.5,98.5-98.5c17.6,0,34.8,4.7,49.9,13.5
				C206.2,94.2,208,93.7,208.8,92.3z"/>
			<path class="st3" d="M225.7,109.8c0.6,0.6,1.3,0.9,2.1,0.9c0.7,0,1.5-0.3,2-0.8c1.2-1.1,1.2-3,0.1-4.1c-3.9-4-8.1-7.8-12.6-11.1
				c-1.3-1-3.1-0.7-4.1,0.6c-1,1.3-0.7,3.1,0.6,4.1C218,102.4,222,106,225.7,109.8z"/>
			<path class="st3" d="M160.3,90.5c0-2.9-2.4-5.3-5.3-5.3c-2.9,0-5.3,2.4-5.3,5.3s2.4,5.3,5.3,5.3
				C157.9,95.8,160.3,93.4,160.3,90.5z"/>
			<path class="st3" d="M155,260.3c-2.9,0-5.3,2.4-5.3,5.3s2.4,5.3,5.3,5.3c2.9,0,5.3-2.4,5.3-5.3
				C160.3,262.6,157.9,260.3,155,260.3z"/>
			<path class="st3" d="M247.9,178c0-2.9-2.4-5.3-5.3-5.3c-2.9,0-5.3,2.4-5.3,5.3c0,2.9,2.4,5.3,5.3,5.3
				C245.5,183.4,247.9,181,247.9,178z"/>
			<path class="st3" d="M62.1,178c0,2.9,2.4,5.3,5.3,5.3s5.3-2.4,5.3-5.3c0-2.9-2.4-5.3-5.3-5.3S62.1,175.1,62.1,178z"/>
			<path class="st3" d="M142.4,52c4.1-0.4,8.3-0.6,12.6-0.6c4.2,0,8.4,0.2,12.6,0.6V38.2h-25.1V52H142.4z"/>
			
				<rect x="241.1" y="75.4" transform="matrix(0.7071 -0.7071 0.7071 0.7071 14.4332 199.4329)" class="st3" width="13.8" height="13.8"/>
			
				<rect x="253.1" y="64.6" transform="matrix(0.7071 -0.7071 0.7071 0.7071 22.269 202.7378)" class="st3" width="5.5" height="19.8"/>
			<path class="st3" d="M155,36.1c8,0,14.5-6.5,14.5-14.5S163,7.1,155,7.1s-14.5,6.5-14.5,14.5S147,36.1,155,36.1z M155,14.8
				c3.7,0,6.8,3,6.8,6.8c0,3.7-3,6.8-6.8,6.8c-3.7,0-6.8-3-6.8-6.8C148.2,17.9,151.3,14.8,155,14.8z"/>
		</g>
	</g>
</g>
</svg>
