<?xml version="1.0" encoding="utf-8"?>
<!-- Generator: Adobe Illustrator 22.1.0, SVG Export Plug-In . SVG Version: 6.00 Build 0)  -->
<svg version="1.1" id="Capa_1" xmlns="http://www.w3.org/2000/svg" xmlns:xlink="http://www.w3.org/1999/xlink" x="0px" y="0px"
	 viewBox="0 0 364.7 125.7" style="enable-background:new 0 0 364.7 125.7;" xml:space="preserve">
<style type="text/css">
	.st0{fill:#DFC351;}
	.st1{fill:#FFFFFF;}
</style>
<g>
	<path class="st0" d="M16,2.3c1.2-1.2,2.9-1.8,4.9-1.8h51.6c2,0,3.7,0.6,4.9,1.8c1.2,1.2,1.8,2.9,1.8,4.9c0,2-0.6,3.7-1.8,4.9
		c-1.2,1.2-2.9,1.8-4.9,1.8H53.4v49.2c0,4.1,2.1,6.2,6.2,6.2h24v4.9h-24c-3.2,0-5.8-1-7.9-3.1c-2.1-2.1-3.1-4.7-3.1-7.9V9h24
		c1.3,0,1.9-0.6,1.9-1.8c0-1.2-0.6-1.8-1.9-1.8H20.9c-1.3,0-1.9,0.6-1.9,1.8c0,1.2,0.6,1.8,1.9,1.8h24v54.1c0,3.3-1,5.9-3.1,8
		c-2.1,2.1-4.7,3.1-8,3.1h-24v-4.9h24c4.1,0,6.2-2.1,6.2-6.2V13.9H20.9c-2,0-3.6-0.6-4.8-1.9c-1.3-1.3-1.9-2.9-1.9-4.8
		C14.1,5.2,14.8,3.5,16,2.3"/>
	<path class="st0" d="M140.2,69.3v4.9h-7.7L97.5,39.3v-4.4h18.7c2.5,0,5-0.7,7.6-2c4.7-2.5,7.1-6.7,7.1-12.8
		c0-6.1-2.4-10.3-7.1-12.8c-2.5-1.3-5.1-1.9-7.6-1.9H92.8v62.1c0,2-0.6,3.6-1.9,4.8c-1.3,1.3-2.9,1.9-4.8,1.9h-2.5v-4.8l2.4-0.1
		c1.3-0.1,1.9-0.7,1.9-1.8v-67h28.3c4.6,0,8.7,1.3,12.3,4c4.9,3.6,7.3,8.8,7.3,15.7c0,6.9-2.4,12.1-7.3,15.7c-3.6,2.6-7.7,4-12.3,4
		h-11.4l29.6,29.6H140.2z"/>
	<path class="st0" d="M162.2,69.4l0.1,4.7l-2.5,0.1c-2,0.1-3.6-0.6-4.9-1.8c-1.3-1.3-1.9-2.9-1.9-4.9V15.8c0-1.3-0.6-1.9-1.8-1.9
		c-1.2,0-1.8,0.6-1.8,1.8v51.7c0,2-0.6,3.6-1.9,4.8c-1.3,1.3-2.9,1.9-4.8,1.9h-2.5v-4.8l2.4-0.1c1.3-0.1,1.9-0.7,1.9-1.8V15.8
		c0-1.6,0.5-3,1.5-4.3c-1-1.2-1.5-2.6-1.5-4.2c0-1.8,0.7-3.4,2-4.7c1.3-1.3,2.9-2,4.7-2c1.8,0,3.4,0.7,4.7,2c1.3,1.3,2,2.9,2,4.7
		c0,1.6-0.5,3-1.5,4.2c1,1.3,1.5,2.7,1.5,4.3v51.7c0,1.2,0.6,1.8,1.9,1.8L162.2,69.4z M149.3,7.2c0,1.2,0.6,1.8,1.8,1.8
		c1.2,0,1.8-0.6,1.8-1.8c0-1.2-0.6-1.8-1.8-1.8C149.9,5.3,149.3,6,149.3,7.2"/>
	<path class="st0" d="M168.6,2.4c1.3-1.3,2.9-1.9,4.8-1.9c2,0,3.6,0.6,4.8,1.9c1.3,1.3,1.9,2.9,1.9,4.8v38.7c0,1.9,0.6,3.4,1.7,4.5
		c1.1,1.1,2.6,1.7,4.5,1.7h17.2c2,0,3.6,0.6,4.8,1.9c1.3,1.3,1.9,2.9,1.9,4.9c0,2-0.6,3.6-1.9,4.8c-1.3,1.3-2.9,1.9-4.8,1.9H182
		c-1.3,0-1.9,0.6-1.9,1.8c0,1.2,0.6,1.8,1.9,1.8h32.5v4.9H182c-2,0-3.6-0.6-4.9-1.9c-1.3-1.3-1.9-2.9-1.9-4.8c0-2,0.6-3.6,1.9-4.8
		c1.3-1.3,2.9-1.9,4.9-1.9h21.5c1.2,0,1.8-0.6,1.8-1.8c0-1.3-0.6-1.9-1.8-1.9h-17.2c-3.2,0-5.8-1-7.9-3.1c-2.1-2.1-3.1-4.7-3.1-7.9
		V7.2c0-1.2-0.6-1.8-1.8-1.8c-1.2,0-1.8,0.6-1.8,1.8v60.3c0,2-0.6,3.6-1.9,4.8c-1.3,1.3-2.9,1.9-4.8,1.9h-2.5v-4.9h2.4
		c1.3-0.1,1.9-0.7,1.9-1.8V7.2C166.6,5.3,167.3,3.7,168.6,2.4"/>
	<path class="st0" d="M263.8,2.4c1.3-1.3,2.9-1.9,4.8-1.9c2,0,3.6,0.6,4.8,1.9c1.3,1.3,1.9,2.9,1.9,4.8v60.3c0,1.2,0.6,1.8,1.9,1.8
		h2.4v4.9h-2.4c-2,0-3.6-0.6-4.8-1.9c-1.3-1.3-1.9-2.9-1.9-4.8V7.2c0-1.2-0.6-1.8-1.9-1.8c-1.2,0-1.8,0.6-1.8,1.8v21.6
		c0,3.3-1,5.9-3.1,7.9c-2.1,2-4.7,3-8,3h-17.3c-3.3,0-5.9-1-8-3c-2.1-2-3.1-4.7-3.1-7.9V7.2c0-1.2-0.6-1.8-1.8-1.8
		c-1.2,0-1.8,0.6-1.8,1.8v60.3c0,2-0.6,3.6-1.9,4.8c-1.3,1.3-2.9,1.9-4.8,1.9h-2.5v-4.8l2.4-0.1c1.3-0.1,1.9-0.7,1.9-1.8V7.2
		c0-2,0.6-3.6,1.9-4.8c1.3-1.3,2.9-1.9,4.8-1.9c2,0,3.6,0.6,4.8,1.9c1.3,1.3,1.9,2.9,1.9,4.8v21.5c0,1.9,0.6,3.4,1.7,4.6
		c1.1,1.1,2.6,1.7,4.5,1.7h17.2c1.8,0,3.3-0.6,4.5-1.7c1.1-1.1,1.7-2.6,1.7-4.5V7.2C261.9,5.3,262.5,3.7,263.8,2.4"/>
	<path class="st0" d="M319.6,0l19.6,39.7h-25.5c-1.3,0-1.9,0.6-1.9,1.8c0,1.3,0.6,1.9,1.9,1.9h27.5L354,69.3h2.4v4.9h-5.3l-13-25.9
		h-24.4c-2,0-3.6-0.6-4.8-1.9c-1.3-1.3-1.9-2.9-1.9-4.9c0-2,0.6-3.7,1.8-4.9c1.2-1.2,2.9-1.8,4.9-1.8h17.7L318,8l-33.1,66.2h-5.3
		v-4.9h2.3L316.7,0H319.6z"/>
	<path class="st0" d="M16.7,71.6c0,3.5-2.9,6.4-6.4,6.4s-6.4-2.9-6.4-6.4c0-3.5,2.9-6.4,6.4-6.4S16.7,68,16.7,71.6"/>
	<path class="st0" d="M359.9,71.6c0,3.5-2.9,6.4-6.4,6.4s-6.4-2.9-6.4-6.4c0-3.5,2.9-6.4,6.4-6.4S359.9,68,359.9,71.6"/>
	<polygon class="st1" points="13.2,71.6 6.6,75.4 0,79.2 0,71.6 0,64 6.6,67.8 	"/>
	<polygon class="st0" points="364.7,54.3 359.4,56.6 354.1,58.9 354.1,54.3 354.1,49.8 359.4,52 	"/>
	<rect x="352.5" y="49.8" class="st1" width="2" height="21.8"/>
	<path class="st1" d="M99.4,122.4c-0.9,0.7-1.9,1.3-2.9,1.8c-1,0.5-2.2,0.9-3.4,1.1c-1.2,0.3-2.5,0.4-4,0.4c-2.3,0-4.5-0.4-6.4-1.3
		c-2-0.9-3.7-2-5.1-3.5c-1.4-1.5-2.6-3.2-3.4-5.3c-0.8-2-1.2-4.2-1.2-6.5c0-2.3,0.4-4.5,1.2-6.5c0.8-2,1.9-3.8,3.4-5.3
		c1.4-1.5,3.2-2.7,5.2-3.6c2-0.9,4.2-1.3,6.5-1.3c1.5,0,2.8,0.1,4,0.4c1.2,0.2,2.3,0.6,3.3,1c1,0.4,1.9,1,2.8,1.6
		c0.9,0.6,1.7,1.3,2.5,2.1l-2.5,2.7c-1.4-1.3-2.9-2.3-4.4-3.2c-1.6-0.8-3.5-1.2-5.7-1.2c-1.8,0-3.4,0.3-4.9,1
		c-1.5,0.7-2.8,1.6-4,2.8c-1.1,1.2-2,2.6-2.6,4.2c-0.6,1.6-0.9,3.4-0.9,5.2c0,1.9,0.3,3.6,0.9,5.2c0.6,1.6,1.5,3,2.6,4.2
		c1.1,1.2,2.4,2.1,4,2.8c1.5,0.7,3.2,1,4.9,1c2.2,0,4.1-0.4,5.7-1.2c1.6-0.8,3.2-2,4.7-3.4l2.4,2.3
		C101.2,120.9,100.3,121.7,99.4,122.4"/>
	<polygon class="st1" points="122.2,92.9 125.8,92.9 125.8,121.8 144,121.8 144,125.1 122.2,125.1 	"/>
	<path class="st1" d="M194.5,125.1h-3.9l-3.8-8.5h-17.5l-3.8,8.5h-3.7l14.7-32.4h3.4L194.5,125.1z M178,97l-7.4,16.4h14.7L178,97z"
		/>
	<path class="st1" d="M236.8,125.1l-9.3-12.5h-9.2v12.5h-3.6V92.9h13.9c1.8,0,3.4,0.2,4.8,0.7c1.4,0.5,2.6,1.1,3.7,2
		c1,0.8,1.8,1.9,2.3,3c0.6,1.2,0.8,2.5,0.8,3.9c0,1.4-0.2,2.6-0.6,3.6c-0.4,1.1-1,2-1.8,2.8s-1.7,1.4-2.8,2
		c-1.1,0.5-2.2,0.9-3.5,1.1l9.9,13.2H236.8z M234.3,98c-1.4-1.1-3.5-1.7-6.1-1.7h-10v13.1h9.9c1.2,0,2.3-0.2,3.3-0.5
		c1-0.3,1.9-0.7,2.6-1.3s1.3-1.3,1.7-2.1c0.4-0.8,0.6-1.8,0.6-2.8C236.5,100.7,235.8,99.1,234.3,98"/>
	<path class="st1" d="M291.7,125.1h-3.9l-3.8-8.5h-17.5l-3.8,8.5h-3.7l14.7-32.4h3.4L291.7,125.1z M275.3,97l-7.4,16.4h14.7
		L275.3,97z"/>
</g>
</svg>
