<?xml version="1.0" encoding="utf-8"?>
<!-- Generator: Adobe Illustrator 22.1.0, SVG Export Plug-In . SVG Version: 6.00 Build 0)  -->
<svg version="1.1" id="Capa_1" xmlns="http://www.w3.org/2000/svg" xmlns:xlink="http://www.w3.org/1999/xlink" x="0px" y="0px"
	 viewBox="0 0 162.1 48.6" style="enable-background:new 0 0 162.1 48.6;" xml:space="preserve">
<style type="text/css">
	.st0{fill:#DBAD07;}
	.st1{fill:#EDEEF0;}
	.st2{fill:#E8CB7F;}
</style>
<g>
	<path class="st0" d="M17.5,30.2c-4.9,0-9.2-4-9.2-9.1v-2.5c0-4.6,3.6-9.2,9.1-9.2h0.8c3.8,0,6.6,2.3,7.9,4.6c0.6,1-3,3-3.5,2
		c-0.7-1.2-2.3-2.5-4.3-2.5h-0.8c-3.1,0-5.1,2.6-5.1,5.1V21c0,2.8,2.3,5.1,5,5.1h0.8c2,0,3.6-1.2,4.3-2.5c0.6-1,4.1,1.1,3.5,2
		c-1.3,2.2-4.1,4.6-7.9,4.5H17.5z"/>
	<path class="st0" d="M29.3,1.2c0-0.5,4.1-0.5,4.1,0v21.6c0,2.1,0.2,2.6,0.4,2.8c0.3,0.4,1.5,0.4,1.7,0.4c1.1,0,1.2,4.1-0.1,4.1
		c-1.5,0-3.7,0.2-5-0.9c-0.8-0.9-1.2-2.1-1.2-3.6V1.2z"/>
	<path class="st0" d="M51.5,29.4c-1.1,0.5-2.3,0.7-3.6,0.7h-0.7c-5.1,0-9.2-4.1-9.2-9.2v-2.5c0-5.1,4.1-9.2,9.2-9.2
		c3.8,0,5.7,0.6,8.5,1.6v18.7c0,0.6-4.1,0.6-4.1,0V29.4z M51.5,14.3c-1.2-0.4-2.1-0.8-3.6-0.8h-0.7c-2.8,0-5.1,2.3-5.1,5.1V21
		c0,2.8,2.3,5.1,5.1,5.1h0.7c1.4,0,2.7-0.6,3.6-1.5V14.3z"/>
	<path class="st0" d="M59.7,11C65.1,8.6,69.9,9.5,70,9.5c1,0.2-0.2,4.1-0.9,4c-0.3-0.1-0.6-0.1-0.9-0.1h-0.7
		c-1.6,0.1-2.5,0.4-3.6,0.8v15.4c0,0.6-4.1,0.6-4.1,0V11z"/>
	<path class="st0" d="M85.2,29.4c-1.1,0.5-2.3,0.7-3.6,0.7h-0.8c-5.1,0-9.2-4.1-9.2-9.2v-2.5c0-5.1,4.1-9.2,9.2-9.2
		c3.8,0,5.7,0.6,8.5,1.6v18.7c0,0.6-4.1,0.6-4.1,0V29.4z M85.2,14.3c-1.2-0.4-2.1-0.8-3.6-0.8h-0.8c-2.8,0-5.1,2.3-5.1,5.1V21
		c0,2.8,2.3,5.1,5.1,5.1h0.8c1.4,0,2.7-0.6,3.6-1.5V14.3z"/>
	<path class="st1" d="M100.2,27.7c0,1.4-1.2,2.6-2.6,2.6h-0.3c-1.4,0-2.6-1.1-2.6-2.6v-0.9c0-1.4,1.2-2.6,2.6-2.6h0.3
		c1.4,0,2.6,1.2,2.6,2.6V27.7z M99.5,21.9c0,0.5-4.1,0.5-4.1,0L94.5,1.8c0-0.5,6.8-0.5,6.8,0L99.5,21.9z"/>
	<path class="st1" d="M102.7,18.5c0-5.1,4.1-9.2,9.2-9.2c1.8,0,3.2,0.1,4.4,0.4V1.3c0-0.6,4.1-0.6,4.1,0v28.5c0,0.6-4.1,0.6-4.1,0
		v-0.3c-1.1,0.5-2.3,0.7-3.6,0.7h-0.8c-5,0-9.2-4.1-9.2-9.2V18.5z M116.2,14.3c-1.2-0.5-2.1-0.8-3.6-0.8h-0.8
		c-2.8,0-5.1,2.2-5.1,5.1v2.5c0,2.8,2.3,5.1,5.1,5.1h0.8c1.4,0,2.7-0.6,3.6-1.5V14.3z"/>
	<path class="st1" d="M132.6,30.2c-4.9,0-9.2-4-9.2-9.2v-2.5c0-5.1,4.1-9.2,9.2-9.2h0.2c5.1,0,9.2,4.1,9.2,9.2v1
		c0,1-0.2,2.2-0.8,2.2h-13.5c0.3,2.5,2.5,4.4,5,4.4h0.8c2,0,3.6-1.3,4.3-2.5c0.6-1,4.1,1.1,3.5,2.1c-1.3,2.2-4.1,4.5-7.9,4.5H132.6z
		 M132.6,13.5c-2.6,0-4.7,2-5,4.5h10.2c-0.3-2.5-2.4-4.5-5-4.5H132.6z"/>
	<path class="st1" d="M158,29.5c-1.1,0.5-2.3,0.7-3.6,0.7h-0.8c-5.1,0-9.2-4.1-9.2-9.2v-2.5c0-5.1,4.1-9.2,9.2-9.2
		c3.8,0,5.7,0.6,8.5,1.6v18.7c0,0.6-4.1,0.6-4.1,0V29.5z M158,14.3c-1.2-0.4-2.1-0.7-3.6-0.8h-0.8c-2.8,0-5.1,2.3-5.1,5.1v2.5
		c0,2.8,2.3,5.1,5.1,5.1h0.8c1.4,0,2.7-0.6,3.6-1.5V14.3z"/>
	<path class="st2" d="M13.6,1.2c0-1.1,4-1.7,4-0.6l-0.8,5c0,1.1-2.4,1.4-2.4,0.3L13.6,1.2z"/>
	<path class="st2" d="M6.2,5.3c-0.7-0.8,2-3.8,2.7-2.9l2.5,4.4c0.7,0.8-1,2.5-1.7,1.7L6.2,5.3z"/>
	<path class="st2" d="M2.5,11.7c-1.1-0.3-0.3-4.3,0.8-3.9l4.5,2.5c1.1,0.3,0.5,2.7-0.6,2.3L2.5,11.7z"/>
	<path class="st2" d="M1.2,18.8c-1.1,0.1-1.8-3.9-0.7-4l5,0.7c1.1-0.1,1.4,2.3,0.3,2.4L1.2,18.8z"/>
	<path class="st1" d="M15,37.4c-0.5,0-0.9-0.4-0.9-0.9c0-0.5,0.4-0.9,0.9-0.9c0.5,0,0.9,0.4,0.9,0.9C15.9,37,15.5,37.4,15,37.4
		 M14.3,45.7v-7l1.3-0.2v7.2H14.3z"/>
	<path class="st1" d="M22,45.7v-4.8c0-0.6-0.1-0.9-0.2-1.1c-0.1-0.2-0.4-0.3-0.7-0.3c-0.5,0-1.3,0.4-1.7,0.9v5.2h-1.3v-5.3
		c0-0.8-0.1-1.2-0.3-1.7l1.2-0.3c0.2,0.3,0.2,0.6,0.2,1.1c0.4-0.3,0.6-0.5,0.9-0.7c0.4-0.2,0.9-0.4,1.3-0.4c0.7,0,1.4,0.4,1.7,1
		c0.1,0.3,0.2,0.6,0.2,0.9v5.3H22z"/>
	<path class="st1" d="M28.3,45.9c-1.9,0-3.1-1.4-3.1-3.7c0-2.3,1.2-3.7,3-3.7c2.1,0,3.1,1.7,3.1,3.8C31.4,44.5,30.2,45.9,28.3,45.9
		 M28.3,39.4c-1.1,0-1.6,0.8-1.6,2.6c0,2.2,0.5,2.9,1.7,2.9c1,0,1.6-0.8,1.6-2.6C29.9,40.1,29.3,39.4,28.3,39.4"/>
	<path class="st1" d="M35.7,45.7h-1.2L32,38.6l1.3-0.2l1.4,4.3c0.2,0.5,0.3,1,0.4,1.5h0c0.1-0.4,0.2-1,0.4-1.6l1.3-4.1h1.4
		L35.7,45.7z"/>
	<path class="st1" d="M44.2,46c-0.4-0.2-0.8-0.5-0.9-1c-0.2,0.2-0.8,0.9-2,0.9c-1.4,0-2.3-0.7-2.3-2.1c0-1.6,1.3-2.5,3.6-2.5
		c0.2,0,0.3,0,0.5,0v-0.5c0-0.8-0.1-1.4-1.1-1.4c-0.7,0-1.6,0.4-2.2,0.8l-0.6-0.9c0.7-0.4,1.6-0.9,3-0.9c1,0,1.8,0.4,2,1.1
		c0.1,0.3,0.1,0.5,0.1,1.2c0,0.5-0.1,1.6-0.1,2.6c0,1,0,1.4,0.6,1.7L44.2,46z M42.6,42.2c-1,0-1.6,0.2-1.8,0.5
		c-0.3,0.3-0.4,0.6-0.4,1c0,0.8,0.4,1.2,1.1,1.2c0.6,0,1.2-0.4,1.5-0.9l0-1.8C42.8,42.2,42.7,42.2,42.6,42.2"/>
	<path class="st1" d="M50.8,45.4c-0.4,0.3-1,0.4-1.6,0.4l-0.1,0.5c0.7,0.1,0.9,0.5,0.9,1c0,0.6-0.5,1.2-1.4,1.2
		c-0.4,0-0.8-0.2-1.1-0.3l0.3-0.7c0.3,0.1,0.5,0.2,0.8,0.2c0.3,0,0.5-0.2,0.5-0.4c0-0.3-0.2-0.4-0.5-0.4c-0.2,0-0.2,0-0.3,0.1
		l-0.1-0.2l0.3-1c-0.6-0.2-1.1-0.5-1.5-1c-0.5-0.7-0.7-1.5-0.7-2.5c0-1.6,0.5-2.5,1.2-3.1c0.5-0.5,1.1-0.7,1.8-0.7
		c0.5,0,0.9,0.1,1.3,0.3c0.2,0.1,0.4,0.3,0.6,0.5L50.6,40c-0.5-0.4-0.8-0.5-1.2-0.5c-0.5,0-1,0.3-1.2,0.7c-0.2,0.5-0.3,1.2-0.3,2.2
		c0,1,0.2,1.6,0.6,2c0.3,0.3,0.6,0.4,1,0.4c0.6,0,1.1-0.3,1.5-0.7l0.6,0.8C51.2,45.1,51,45.3,50.8,45.4"/>
	<path class="st1" d="M57.8,46c-0.4-0.2-0.8-0.5-0.9-1c-0.2,0.2-0.8,0.9-2,0.9c-1.4,0-2.3-0.7-2.3-2.1c0-1.6,1.3-2.5,3.6-2.5
		c0.2,0,0.3,0,0.5,0v-0.5c0-0.8-0.1-1.4-1.1-1.4c-0.7,0-1.6,0.4-2.2,0.8l-0.6-0.9c0.7-0.4,1.6-0.9,3-0.9c1,0,1.8,0.4,2,1.1
		c0.1,0.3,0.1,0.5,0.1,1.2c0,0.5-0.1,1.6-0.1,2.6c0,1,0,1.4,0.6,1.7L57.8,46z M56.2,37.4c-0.9,0-1-0.6-1.8-0.6
		c-0.4,0-0.6,0.2-0.9,0.5L53,36.6c0.5-0.6,0.8-0.9,1.7-0.9c0.9,0,1,0.6,1.8,0.6c0.4,0,0.7-0.2,0.9-0.5l0.4,0.7
		C57.4,37.1,57,37.4,56.2,37.4 M56.3,42.2c-1,0-1.6,0.2-1.8,0.5c-0.3,0.3-0.4,0.6-0.4,1c0,0.8,0.4,1.2,1.1,1.2
		c0.6,0,1.2-0.4,1.5-0.9l0-1.8C56.5,42.2,56.4,42.2,56.3,42.2"/>
	<path class="st1" d="M62.9,45.9c-1.9,0-3.1-1.4-3.1-3.7c0-2.3,1.2-3.7,3-3.7c2.1,0,3.1,1.7,3.1,3.8C66,44.5,64.8,45.9,62.9,45.9
		 M62.9,39.4c-1.1,0-1.6,0.8-1.6,2.6c0,2.2,0.6,2.9,1.7,2.9c1,0,1.6-0.8,1.6-2.6C64.6,40.1,63.9,39.4,62.9,39.4"/>
	<path class="st1" d="M76.5,40.5v7.8l-1.2,0.3V46c0-0.1,0-0.9,0-1.1c-0.6,0.6-1.1,0.9-1.8,0.9c-1.4,0-2.8-1.1-2.8-3.5
		c0-2.4,1-3.9,2.8-3.9c0.7,0,1.4,0.3,1.9,1c0-0.4,0.1-0.6,0.1-0.8h1.2C76.6,38.9,76.5,39.7,76.5,40.5 M75.3,40.4
		c-0.4-0.5-1-0.9-1.6-0.9c-1.1,0-1.6,1-1.6,2.5c0,2,0.7,2.7,1.7,2.7c0.6,0,1.2-0.4,1.5-0.9V40.4z"/>
	<path class="st1" d="M83.7,45.9c-0.4-0.3-0.5-0.5-0.7-1c-0.6,0.7-1.3,1-2.1,1c-0.9,0-1.6-0.4-1.9-1.1c-0.1-0.3-0.2-0.7-0.2-1.2v-5
		l1.3-0.3v4.9c0,0.7,0.1,1,0.3,1.2c0.2,0.2,0.5,0.3,0.8,0.3c0.6,0,1.3-0.5,1.6-1.1v-5.1l1.3-0.3v5.3c0,0.7,0.2,1.2,0.4,1.5
		L83.7,45.9z"/>
	<path class="st1" d="M87.6,42.4v0.2c0,0.6,0.1,1.1,0.3,1.4c0.4,0.6,0.9,0.8,1.6,0.8c0.7,0,1.2-0.2,1.7-0.7l0.5,0.8
		c-0.7,0.6-1.5,0.9-2.4,0.9c-2,0-3.2-1.4-3.2-3.7c0-1.2,0.2-2,0.8-2.7c0.6-0.7,1.3-1,2.1-1c0.8,0,1.4,0.3,1.9,0.8
		c0.6,0.6,0.8,1.4,0.9,3v0.2H87.6z M90.1,39.9c-0.2-0.3-0.6-0.5-1-0.5c-1,0-1.5,0.8-1.5,2.1h2.9C90.5,40.8,90.4,40.2,90.1,39.9"/>
	<path class="st1" d="M99.6,39.5h-1.4v4.3c0,0.9,0.2,1.1,0.9,1.1c0.2,0,0.4,0,0.7-0.1l0.2,0.8c-0.4,0.2-0.8,0.3-1.3,0.3
		c-0.5,0-1-0.1-1.2-0.4c-0.3-0.3-0.5-0.4-0.5-1.4v-4.6h-0.8v-0.9h0.8c0-0.6,0-1.3,0.1-1.8l1.3-0.3c-0.1,0.5-0.1,1.4-0.1,2.1h1.7
		L99.6,39.5z"/>
	<path class="st1" d="M104.5,39.8c-0.1,0-0.2-0.1-0.4-0.1c-0.8,0-1.5,0.7-1.5,1.4v4.6h-1.3v-5.2c0-0.9-0.1-1.3-0.3-1.8l1.3-0.3
		c0.1,0.3,0.2,0.7,0.2,1.1v0.1c0.6-0.8,1.2-1.2,1.9-1.2c0.2,0,0.3,0,0.4,0.1L104.5,39.8z"/>
	<path class="st1" d="M110.8,46c-0.4-0.2-0.8-0.5-0.9-1c-0.2,0.2-0.8,0.9-2,0.9c-1.4,0-2.3-0.7-2.3-2.1c0-1.6,1.3-2.5,3.6-2.5
		c0.2,0,0.3,0,0.5,0v-0.5c0-0.8-0.1-1.4-1.1-1.4c-0.7,0-1.6,0.4-2.2,0.8l-0.6-0.9c0.7-0.4,1.6-0.9,3-0.9c1,0,1.8,0.4,2,1.1
		c0.1,0.3,0.1,0.5,0.1,1.2c0,0.5-0.1,1.6-0.1,2.6c0,1,0,1.4,0.6,1.7L110.8,46z M109.2,42.2c-1,0-1.6,0.2-1.8,0.5
		c-0.3,0.3-0.4,0.6-0.4,1c0,0.8,0.4,1.2,1.1,1.2c0.6,0,1.2-0.4,1.5-0.9l0-1.8C109.4,42.2,109.3,42.2,109.2,42.2"/>
	<path class="st1" d="M117.3,45.7v-4.8c0-0.6-0.1-0.9-0.2-1.1c-0.1-0.2-0.4-0.3-0.7-0.3c-0.5,0-1.3,0.4-1.8,0.9v5.2h-1.3v-5.3
		c0-0.8-0.1-1.2-0.3-1.7l1.2-0.3c0.2,0.3,0.2,0.6,0.2,1.1c0.4-0.3,0.6-0.5,0.9-0.7c0.4-0.2,0.9-0.4,1.3-0.4c0.7,0,1.4,0.4,1.7,1
		c0.1,0.3,0.2,0.6,0.2,0.9v5.3H117.3z"/>
	<path class="st1" d="M122.9,45.9c-0.9,0-1.8-0.3-2.6-0.7l0.5-0.9c0.7,0.4,1.5,0.7,2.3,0.7c0.8,0,1.3-0.5,1.3-1.1
		c0-0.6-0.4-1-1.2-1.1l-0.9-0.2c-1.1-0.2-1.7-0.9-1.7-2c0-1.3,1-2.2,2.6-2.2c0.9,0,1.7,0.2,2.2,0.6l-0.4,0.9
		c-0.7-0.3-1.2-0.5-1.7-0.5c-0.7,0-1.2,0.4-1.2,1.1c0,0.5,0.3,0.8,1,1l0.9,0.2c1.3,0.3,1.8,1,1.8,2
		C125.7,44.9,124.6,45.9,122.9,45.9"/>
	<path class="st1" d="M130.7,36.6c-0.3-0.2-0.6-0.3-0.9-0.3c-0.6,0-0.9,0.4-0.9,1.1v1.1h1.9l-0.3,0.9h-1.5v6.2h-1.3v-6.2h-0.7v-0.9
		h0.7c0-0.1,0-1,0-1.1c0-1,0.4-1.5,0.8-1.8c0.3-0.2,0.8-0.3,1.3-0.3c0.6,0,1.1,0.1,1.5,0.4L130.7,36.6z"/>
	<path class="st1" d="M134.2,45.9c-1.9,0-3.1-1.4-3.1-3.7c0-2.3,1.2-3.7,3-3.7c2.1,0,3.1,1.7,3.1,3.8
		C137.3,44.5,136.1,45.9,134.2,45.9 M134.2,39.4c-1.1,0-1.6,0.8-1.6,2.6c0,2.2,0.6,2.9,1.7,2.9c1,0,1.6-0.8,1.6-2.6
		C135.9,40.1,135.2,39.4,134.2,39.4"/>
	<path class="st1" d="M142.4,39.8c-0.1,0-0.2-0.1-0.4-0.1c-0.8,0-1.5,0.7-1.5,1.4v4.6h-1.3v-5.2c0-0.9-0.1-1.3-0.3-1.8l1.3-0.3
		c0.1,0.3,0.2,0.7,0.2,1.1v0.1c0.6-0.8,1.2-1.2,1.9-1.2c0.2,0,0.3,0,0.4,0.1L142.4,39.8z"/>
	<path class="st1" d="M151.6,45.7v-5.1c0-0.8-0.3-1.1-0.8-1.1c-0.6,0-1.1,0.4-1.6,1v5.2h-1.3v-5c0-0.8-0.2-1.1-0.9-1.1
		c-0.5,0-1,0.2-1.6,0.8v5.3H144v-5.2c0-1-0.1-1.3-0.3-1.8l1.2-0.3c0.1,0.2,0.2,0.6,0.2,1c0.6-0.6,1.3-1,2-1s1.3,0.4,1.7,1.1
		c0.7-0.7,1.4-1.1,2.2-1.1c1.1,0,1.8,0.7,1.8,2v5.3H151.6z"/>
	<path class="st1" d="M159.9,46c-0.4-0.2-0.8-0.5-0.9-1c-0.2,0.2-0.8,0.9-2,0.9c-1.4,0-2.3-0.7-2.3-2.1c0-1.6,1.3-2.5,3.6-2.5
		c0.2,0,0.3,0,0.5,0v-0.5c0-0.8-0.1-1.4-1.1-1.4c-0.7,0-1.6,0.4-2.2,0.8l-0.6-0.9c0.7-0.4,1.6-0.9,3-0.9c1,0,1.8,0.4,2,1.1
		c0.1,0.3,0.1,0.5,0.1,1.2c0,0.5-0.1,1.6-0.1,2.6c0,1,0,1.4,0.6,1.7L159.9,46z M158.3,42.2c-1,0-1.6,0.2-1.8,0.5
		c-0.3,0.3-0.4,0.6-0.4,1c0,0.8,0.4,1.2,1.1,1.2c0.6,0,1.2-0.4,1.5-0.9l0-1.8C158.5,42.2,158.4,42.2,158.3,42.2"/>
</g>
</svg>
