<?xml version="1.0" encoding="utf-8"?>
<!-- Generator: Adobe Illustrator 22.1.0, SVG Export Plug-In . SVG Version: 6.00 Build 0)  -->
<svg version="1.1" id="Capa_1" xmlns="http://www.w3.org/2000/svg" xmlns:xlink="http://www.w3.org/1999/xlink" x="0px" y="0px"
	 viewBox="0 0 665.6 200.1" style="enable-background:new 0 0 665.6 200.1;" xml:space="preserve">
<style type="text/css">
	.st0{fill:#FFFFFF;}
	.st1{fill:#BBCE34;}
	.st2{fill:#BCCF33;}
</style>
<g>
	<g>
		<path class="st0" d="M228.4,144.6c-8.7-0.1-14.4-7-17.3-20.7c-1.9-8.8-2.8-19.7-2.8-32.7l-0.2-12.5c0-2.9,0.1-6.8,0.3-11.8
			s0.9-10.7,2.3-17.2c3-14.6,9.7-21.9,19.9-21.9c6,0,10.7,3.2,14.1,9.5c0.6,1.1,0.9,2.2,0.9,3.3c0,0.1,0,0.5,0,1.1s-0.7,1.3-1.9,2.2
			c-0.8,0.6-1.6,0.8-2.5,0.8c-0.3,0-0.8-0.1-1.6-0.3s-1.8-1.3-3.2-3.2c-2-3.1-4.1-4.7-6.1-4.7c-0.8,0-1.6,0.2-2.5,0.6
			c-7.1,3.4-10.7,19.5-10.7,48.3c0,9.7,0.6,19.4,1.7,29.1c0.9,7.8,2.4,13.6,4.3,17.3c1.5,2.9,3.3,4.3,5.3,4.3c0.6,0,1.1-0.1,1.7-0.4
			c1.5-0.7,2.7-1.6,3.5-2.8s1.5-2.5,2.1-3.8c1.3-3.3,2.9-4.9,4.9-4.9c3.2,0.1,4.8,1.4,4.8,4.2c0,0.8-0.2,1.6-0.5,2.5
			C241.2,140,235.7,144.6,228.4,144.6z"/>
		<path class="st0" d="M278.1,144.1l-15.8-0.2c-2.7,0-4.4-0.7-4.9-2.2c-0.4-1-0.5-2.2-0.5-3.6c0.2-9,0.3-17.8,0.3-26.6
			c0.2-16.7,0.5-42.1,1-76.2c0-1.4,0.4-2.6,1.1-3.7c0.7-1.1,1.8-1.7,3.4-1.7c3,0,4.6,2,4.6,5.8c-0.8,61.2-1.2,93.5-1.3,96.9
			c0,1.3,0.2,2.2,0.5,2.6c0.8,0.3,2.2,0.4,4.3,0.4l9.3-0.1c3,0,4.8,0.2,5.5,0.5c1.6,0.8,2.4,2.1,2.4,3.9c0,2.3-1.5,3.6-4.6,3.9
			C282.1,144,280.3,144.1,278.1,144.1z"/>
		<path class="st0" d="M334.2,144.6c-3.2,0-4.8-2-4.8-5.9c0-3.1,0.1-6.4,0.2-9.6c0.3-7.9,0.5-17.5,0.5-28.8c0-9-0.3-18-0.8-27
			c-0.1-1.2-0.2-2.5-0.3-3.9c-0.2-1.8-1.2-2.7-2.9-2.7l-16-0.1c-1.6,0-2.6,0.4-3,1.1s-0.6,1.8-0.6,3.3s-0.2,4-0.5,7.5
			c-0.9,11-1.4,25-1.4,42l0.1,14.9c0,1.5-0.2,2.9-0.7,4.2s-1.7,1.9-3.9,1.9c-2.4-0.1-3.8-1.2-4.2-3.6c-0.3-1.6-0.5-3.2-0.5-4.7
			c0-0.7,0-1.4,0.1-2.1c0.1-0.9,0.2-11.3,0.4-31.1c0-12.5,0.7-25,1.9-37.4c0.2-2.2,1.1-7.1,2.7-14.6c2.7-13.2,7.8-19.8,15.3-19.8
			c9.7,0.4,16,6.6,19,18.5s4.4,30.4,4.4,55.4s-0.5,38.5-1.4,40.5C337.2,143.9,336,144.6,334.2,144.6z M310.5,58.4
			c0.9,0,3-0.1,6.3-0.1h7.7c1.8,0,2.7-0.5,2.7-1.5c0-0.5-0.2-1.6-0.6-3.5c-2.5-11.2-5.8-16.9-9.8-16.9c-0.4,0-0.8,0.1-1.2,0.3
			c-3.2,1.7-5.7,7.5-7.3,17.2c-0.2,1.3-0.3,2.2-0.3,2.7c0,0.8,0.2,1.2,0.6,1.4C309.1,58.3,309.7,58.4,310.5,58.4z"/>
		<path class="st0" d="M396.5,149.3c-2.8,0-4.2-1.5-4.3-4.4l-0.1-11.5c-0.1-22.1-2.4-38.8-6.9-50c-2.3-5.6-6-10.1-11.1-13.6
			c-1.2-0.9-2.1-1.3-2.7-1.3c-0.7,0-1,0.7-1,2.1c0,0.4,0,0.8,0.1,1.3c0,0.5,0.1,2.6,0.1,6.3l-0.6,61.2c-0.1,3.6-1.6,5.4-4.6,5.4
			c-3.1,0-4.6-2.2-4.6-6.5l0.1-5.2c0.6-49.8,1-83,1.4-99.7c0.1-3,0.9-4.7,2.5-5.2c0.8-0.3,1.7-0.4,2.8-0.4c4.6,0,9.7,1,15.4,2.9
			c3.7,1.3,6.9,3.5,9.6,6.8c2.4,2.9,3.6,6.1,3.6,9.6c0,7.3-4.2,12.8-12.5,16.4c-1.2,0.6-1.8,1-1.8,1.4c0,0.5,0.5,1.2,1.6,2.1
			c7.1,6.3,11.9,15.2,14.2,26.5c2.1,10.4,3.2,25,3.2,43.8c0,2.5-0.1,5-0.2,7.4C400.7,147.7,399.3,149.3,396.5,149.3z M371.7,58.6
			c2.2,0,4.8-0.8,8-2.4c2.3-1.2,4.2-2.7,5.7-4.5c1.2-1.4,1.8-3,1.8-4.8c0-0.5-0.1-0.9-0.2-1.4c-1.5-4.9-6.4-7.7-14.7-8.4
			c-0.4,0-0.7,0.1-0.9,0.3c-0.2,0.2-0.3,0.9-0.3,2c0,4.2-0.1,9.2-0.2,15.1c0,2.1,0,3.3,0.2,3.6C371,58.4,371.3,58.6,371.7,58.6z"/>
		<path class="st0" d="M456.5,144.6c-3.2,0-4.8-2-4.8-5.9c0-3.1,0.1-6.4,0.2-9.6c0.3-7.9,0.5-17.5,0.5-28.8c0-9-0.3-18-0.8-27
			c-0.1-1.2-0.2-2.5-0.3-3.9c-0.2-1.8-1.2-2.7-2.9-2.7l-16-0.1c-1.6,0-2.6,0.4-3,1.1s-0.6,1.8-0.6,3.3s-0.2,4-0.5,7.5
			c-0.9,11-1.4,25-1.4,42l0.1,14.9c0,1.5-0.2,2.9-0.7,4.2s-1.7,1.9-3.9,1.9c-2.4-0.1-3.8-1.2-4.2-3.6c-0.3-1.6-0.5-3.2-0.5-4.7
			c0-0.7,0-1.4,0.1-2.1c0.1-0.9,0.2-11.3,0.4-31.1c0-12.5,0.7-25,1.9-37.4c0.2-2.2,1.1-7.1,2.7-14.6c2.7-13.2,7.8-19.8,15.3-19.8
			c9.7,0.4,16,6.6,19,18.5s4.4,30.4,4.4,55.4s-0.5,38.5-1.4,40.5C459.5,143.9,458.3,144.6,456.5,144.6z M432.8,58.4
			c0.9,0,3-0.1,6.3-0.1h7.7c1.8,0,2.7-0.5,2.7-1.5c0-0.5-0.2-1.6-0.6-3.5c-2.5-11.2-5.8-16.9-9.8-16.9c-0.4,0-0.8,0.1-1.2,0.3
			c-3.2,1.7-5.7,7.5-7.3,17.2c-0.2,1.3-0.3,2.2-0.3,2.7c0,0.8,0.2,1.2,0.6,1.4C431.4,58.3,432,58.4,432.8,58.4z"/>
		<path class="st1" d="M493,144h-11.5c-1.3,0-2.6-0.2-3.9-0.6c-1.5-0.5-2.3-1.7-2.3-3.9c0-2.7,1.7-4,5.2-4h1.5
			c0.4-37.9,0.8-70.8,1.3-98.7l-1.6,0.1c-1.2,0-2.6-0.2-4.1-0.5c-1.5-0.4-2.3-1.7-2.3-3.9c0-2.7,1.7-4,5.2-4h14.7
			c3.5,0,5.3,1.5,5.3,4.6c-0.3,2-1.3,3.2-3,3.6c-1.2,0.3-2.4,0.4-3.6,0.4l-1.5-0.1c-0.5,17.5-0.9,50.4-1.3,98.7h2.8
			c4.4,0,6.6,1.4,6.6,4.3C500.5,142.6,498,144,493,144z"/>
		<path class="st1" d="M523.2,144.6h-0.6c-2.3,0-3.8-0.5-4.3-1.6s-0.8-2.6-0.8-4.5c0.3-17.6,0.7-52.2,1.2-103.8
			c0.1-3.3,0.7-5.3,1.9-6.2c0.8-0.6,2.1-0.8,3.7-0.8c0.9,0,1.8,0.1,2.9,0.2c9.7,1.1,16.7,4,21.2,8.9c2.8,3.1,5,7,6.5,11.6
			c2.9,9,4.3,21.4,4.3,37.2c0,0.6,0,3.2,0,7.9s-1,11.3-3,19.9s-5.5,15.7-10.5,21.6C540.3,141.1,532.8,144.4,523.2,144.6z
			 M527.7,135.3c1.3,0,3.2-0.7,5.6-2.1c11.3-6.6,17-22.7,17-48.4c0-20.8-2.7-34.4-8-40.8c-3-3.6-6.8-5.8-11.5-6.8
			c-0.5-0.1-0.9-0.2-1.3-0.2c-0.8,0-1.3,0.3-1.5,0.8c-0.3,0.5-0.4,1.3-0.4,2.3c-0.5,45.6-0.9,76.4-1.1,92.6
			C526.6,134.4,526.9,135.3,527.7,135.3z"/>
		<path class="st1" d="M607.2,144l-24-0.2c-2.7,0-4.3-0.8-4.9-2.4c-0.4-1.1-0.5-2.3-0.5-3.6c0-71.4,1.2-107.7,3.7-108.7
			c1-0.4,2.1-0.5,3.4-0.5l20.7,0.2c2.3,0,3.8,0.7,4.5,2.1c0.4,0.7,0.6,1.3,0.6,2c0,2.6-1.6,3.9-4.9,3.9L589.5,37
			c-1,0-1.4,0.7-1.4,2.1L587.9,57c0,0.5,0.1,0.8,0.4,1c0.3,0.2,4.4,0.3,12.4,0.3c4.7,0,7.4,0.1,8,0.3c1.9,0.7,2.8,2.1,2.8,4
			c0,2.6-1.6,3.9-4.9,3.9c-9.5,0-15.1,0-16.8,0.1c-1.1,0-1.7,0.3-1.9,1c-0.1,0.4-0.4,22-0.9,64.9c0,1.5,0.2,2.4,0.6,2.7
			c0.4,0.3,0.9,0.4,1.6,0.4c0.7,0,5.3-0.1,13.8-0.2l5.9,0.2c3.3,0.1,5,1.4,5,4c0,0.6-0.2,1.4-0.7,2.3
			C612.5,143.3,610.5,144,607.2,144z"/>
		<path class="st1" d="M660.7,144.6c-3.2,0-4.8-2-4.8-5.9c0-3.1,0.1-6.4,0.2-9.6c0.3-7.9,0.5-17.5,0.5-28.8c0-9-0.3-18-0.8-27
			c-0.1-1.2-0.2-2.5-0.3-3.9c-0.2-1.8-1.2-2.7-2.9-2.7l-16-0.1c-1.6,0-2.6,0.4-3,1.1S633,69.5,633,71s-0.2,4-0.5,7.5
			c-0.9,11-1.4,25-1.4,42l0.1,14.9c0,1.5-0.2,2.9-0.7,4.2s-1.7,1.9-3.9,1.9c-2.4-0.1-3.8-1.2-4.2-3.6c-0.3-1.6-0.5-3.2-0.5-4.7
			c0-0.7,0-1.4,0.1-2.1c0.1-0.9,0.2-11.3,0.4-31.1c0-12.5,0.7-25,1.9-37.4c0.2-2.2,1.1-7.1,2.7-14.6c2.7-13.2,7.8-19.8,15.3-19.8
			c9.7,0.4,16,6.6,18.9,18.5s4.4,30.4,4.4,55.4s-0.5,38.5-1.4,40.5C663.7,143.9,662.5,144.6,660.7,144.6z M637.1,58.4
			c0.9,0,3-0.1,6.3-0.1h7.7c1.8,0,2.7-0.5,2.7-1.5c0-0.5-0.2-1.6-0.6-3.5c-2.5-11.2-5.8-16.9-9.8-16.9c-0.4,0-0.8,0.1-1.2,0.3
			c-3.2,1.7-5.7,7.5-7.3,17.2c-0.2,1.3-0.3,2.2-0.3,2.7c0,0.8,0.2,1.2,0.6,1.4C635.7,58.3,636.3,58.4,637.1,58.4z"/>
	</g>
	<g>
		<g>
			<path class="st0" d="M276.7,176v17.5h-2.3V176H276.7z"/>
			<path class="st0" d="M280.6,176.3c1.4-0.2,3-0.4,4.8-0.4c3.3,0,5.6,0.8,7.1,2.2c1.6,1.4,2.5,3.5,2.5,6.3c0,2.9-0.9,5.2-2.5,6.8
				s-4.3,2.5-7.8,2.5c-1.6,0-3-0.1-4.1-0.2V176.3z M282.9,191.8c0.6,0.1,1.4,0.1,2.3,0.1c4.8,0,7.5-2.7,7.5-7.4
				c0-4.1-2.3-6.8-7.1-6.8c-1.2,0-2.1,0.1-2.7,0.2L282.9,191.8L282.9,191.8z"/>
			<path class="st0" d="M307,185.3h-6.8v6.3h7.6v1.9H298V176h9.5v1.9h-7.2v5.5h6.8L307,185.3L307,185.3z"/>
			<path class="st0" d="M313,176v17.5h-2.3V176H313z"/>
			<path class="st0" d="M319.8,188l-1.8,5.5h-2.3l6-17.5h2.7l6,17.5H328l-1.9-5.5H319.8z M325.6,186.3l-1.7-5
				c-0.4-1.1-0.7-2.2-0.9-3.2h-0.1c-0.3,1-0.5,2.1-0.9,3.2l-1.7,5.1h5.3V186.3z"/>
			<path class="st0" d="M332.6,190.8c1,0.6,2.5,1.1,4.1,1.1c2.3,0,3.7-1.2,3.7-3c0-1.6-0.9-2.6-3.3-3.5c-2.9-1-4.6-2.5-4.6-5
				c0-2.7,2.3-4.8,5.7-4.8c1.8,0,3.1,0.4,3.9,0.9l-0.6,1.8c-0.6-0.3-1.7-0.8-3.3-0.8c-2.4,0-3.3,1.4-3.3,2.6c0,1.6,1.1,2.4,3.5,3.4
				c3,1.1,4.5,2.6,4.5,5.2c0,2.7-2,5-6.1,5c-1.7,0-3.5-0.5-4.5-1.1L332.6,190.8z"/>
			<path class="st0" d="M355.8,186.8c0-1.5,1.2-2.7,2.7-2.7s2.7,1.2,2.7,2.7s-1.2,2.7-2.7,2.7S355.8,188.3,355.8,186.8z"/>
			<path class="st0" d="M375.2,176.3c1.4-0.2,3-0.4,4.8-0.4c3.3,0,5.6,0.8,7.1,2.2c1.6,1.4,2.5,3.5,2.5,6.3c0,2.9-0.9,5.2-2.5,6.8
				s-4.3,2.5-7.8,2.5c-1.6,0-3-0.1-4.1-0.2V176.3z M377.4,191.8c0.6,0.1,1.4,0.1,2.3,0.1c4.8,0,7.5-2.7,7.5-7.4
				c0-4.1-2.3-6.8-7.1-6.8c-1.2,0-2.1,0.1-2.7,0.2L377.4,191.8L377.4,191.8z"/>
			<path class="st0" d="M401.6,185.3h-6.8v6.3h7.6v1.9h-9.9V176h9.5v1.9h-7.2v5.5h6.8V185.3z"/>
			<path class="st0" d="M405,190.8c1,0.6,2.5,1.1,4.1,1.1c2.3,0,3.7-1.2,3.7-3c0-1.6-0.9-2.6-3.3-3.5c-2.9-1-4.6-2.5-4.6-5
				c0-2.7,2.3-4.8,5.7-4.8c1.8,0,3.1,0.4,3.9,0.9l-0.6,1.8c-0.6-0.3-1.7-0.8-3.3-0.8c-2.4,0-3.3,1.4-3.3,2.6c0,1.6,1.1,2.4,3.5,3.4
				c3,1.1,4.5,2.6,4.5,5.2c0,2.7-2,5-6.1,5c-1.7,0-3.5-0.5-4.5-1.1L405,190.8z"/>
			<path class="st0" d="M420.4,176v17.5h-2.3V176H420.4z"/>
			<path class="st0" d="M437.7,192.8c-1,0.4-3,1-5.4,1c-2.7,0-4.8-0.7-6.6-2.3c-1.5-1.5-2.4-3.8-2.4-6.5c0-5.2,3.6-9.1,9.5-9.1
				c2,0,3.6,0.4,4.4,0.8l-0.5,1.8c-0.9-0.4-2.1-0.8-3.9-0.8c-4.3,0-7.1,2.7-7.1,7.1c0,4.5,2.7,7.1,6.8,7.1c1.5,0,2.5-0.2,3-0.5v-5.2
				H432v-1.8h5.8L437.7,192.8L437.7,192.8z"/>
			<path class="st0" d="M441.2,193.6V176h2.5l5.6,8.9c1.3,2.1,2.3,3.9,3.1,5.7h0.1c-0.2-2.3-0.3-4.5-0.3-7.2V176h2.1v17.5H452
				l-5.6-8.9c-1.2-2-2.4-4-3.3-5.9H443c0.1,2.2,0.2,4.3,0.2,7.2v7.5h-2V193.6z"/>
			<path class="st0" d="M468.3,186.8c0-1.5,1.2-2.7,2.7-2.7s2.7,1.2,2.7,2.7s-1.2,2.7-2.7,2.7C469.6,189.5,468.3,188.3,468.3,186.8z
				"/>
			<path class="st0" d="M490,176v17.5h-2.3V176H490z"/>
			<path class="st0" d="M494,193.6V176h2.5l5.6,8.9c1.3,2.1,2.3,3.9,3.1,5.7h0.1c-0.2-2.3-0.3-4.5-0.3-7.2V176h2.1v17.5h-2.3
				l-5.6-8.9c-1.2-2-2.4-4-3.3-5.9h-0.1c0.1,2.2,0.2,4.3,0.2,7.2v7.5h-2V193.6z"/>
			<path class="st0" d="M526.1,184.6c0,6-3.7,9.2-8.1,9.2c-4.6,0-7.9-3.6-7.9-8.9c0-5.6,3.5-9.2,8.1-9.2
				C523,175.7,526.1,179.4,526.1,184.6z M512.5,184.9c0,3.7,2,7.1,5.6,7.1s5.6-3.3,5.6-7.3c0-3.5-1.8-7.1-5.6-7.1
				C514.4,177.6,512.5,181,512.5,184.9z"/>
			<path class="st0" d="M532.9,193.6l-5.7-17.5h2.4l2.7,8.6c0.8,2.4,1.4,4.5,1.9,6.6h0.1c0.5-2,1.2-4.2,2-6.5l3-8.7h2.4l-6.3,17.5
				L532.9,193.6L532.9,193.6z"/>
			<path class="st0" d="M544.9,188l-1.8,5.5h-2.3l6-17.5h2.7l6,17.5H553l-1.9-5.5H544.9z M550.7,186.3l-1.7-5
				c-0.4-1.1-0.7-2.2-0.9-3.2H548c-0.3,1-0.5,2.1-0.9,3.2l-1.7,5.1h5.3V186.3z"/>
			<path class="st0" d="M569.9,193c-0.8,0.4-2.5,0.8-4.6,0.8l-0.6,1c1,0.2,1.8,0.9,1.8,2c0,1.5-1.3,2.1-2.7,2.1
				c-0.7,0-1.4-0.2-1.8-0.4l0.4-1.2c0.4,0.2,0.9,0.3,1.5,0.3s1.1-0.2,1.1-0.8c0-0.7-0.8-1-2-1.1l1.1-2c-4.3-0.5-7.4-3.6-7.4-8.8
				c0-5.5,3.7-9.2,9.2-9.2c2.2,0,3.6,0.5,4.2,0.8l-0.5,1.8c-0.9-0.4-2.1-0.7-3.5-0.7c-4.1,0-6.8,2.6-6.8,7.2c0,4.3,2.5,7.1,6.7,7.1
				c1.4,0,2.8-0.3,3.7-0.7L569.9,193z"/>
			<path class="st0" d="M575.7,188l-1.8,5.5h-2.3l6-17.5h2.7l6,17.5h-2.4L582,188H575.7z M575.7,175c0-1.6,0.7-2.7,1.8-2.7
				c0.6,0,1,0.2,1.6,0.5c0.4,0.2,0.8,0.5,1.2,0.5s0.7-0.2,0.7-1h1.2c0,1.6-0.5,2.5-1.8,2.5c-0.5,0-1-0.2-1.6-0.5
				c-0.5-0.3-0.8-0.5-1.2-0.5s-0.6,0.4-0.7,1.1L575.7,175L575.7,175z M581.4,186.3l-1.7-5c-0.4-1.1-0.7-2.2-0.9-3.2h-0.1
				c-0.3,1-0.5,2.1-0.9,3.2l-1.7,5.1h5.3V186.3z"/>
			<path class="st0" d="M603.4,184.6c0,6-3.7,9.2-8.1,9.2c-4.6,0-7.9-3.6-7.9-8.9c0-5.6,3.5-9.2,8.1-9.2
				C600.3,175.7,603.4,179.4,603.4,184.6z M589.8,184.9c0,3.7,2,7.1,5.6,7.1s5.6-3.3,5.6-7.3c0-3.5-1.8-7.1-5.6-7.1
				C591.6,177.6,589.8,181,589.8,184.9z"/>
		</g>
	</g>
	<g>
		<path class="st2" d="M90.1,162.6c-10-4.4-21.8-4.6-31.4-0.2c-1.5,0.7-2,2.6-0.9,3.8c0.7,0.7,2.9,5.1,4.4,4.4
			c7.4-3.4,14.8-3.5,24.1-0.1c1.3,0.5,4.5-4.2,4.5-4.2C92.1,165.1,91.7,163.2,90.1,162.6z"/>
		<path class="st2" d="M84,173.5c-5.7-3.2-14.4-3.4-19.1,0.3c-0.8,0.6-0.6,1.4,0,2.3c0.4,0.5,1.9,3.3,2.5,3.1c4.6-1.8,9-1.8,14.3,0
			c0.6,0.2,1.8-2.3,2.2-2.8l0.2-0.2C84.6,175.4,84.9,174,84,173.5z"/>
		<path class="st2" d="M125.3,15c-7-8.1-15.5-15.1-27.2-15C88.8,0.1,78,10.4,79.9,22.9c1.7,11.4,2.4,20.7,2.4,28.3
			c-0.4,4.7-0.6,10.7-0.7,10.6C77,93.6,51.7,78.6,30.9,65c-0.4-0.6-3.9-2.7-3.8-2.5C14.5,54.3,4.4,47.8,2.6,54.6
			c-0.4,1.5-0.7,3-1,4.4c-0.7,4-1.2,7.7-1.5,11.3c0,0.1,0,0.2,0,0.4C0,72.5,0,74.3,0,76c0.7,34.4,32.1,48.1,46.6,69.5
			c1.7,2.5,2.9,5.1,3.7,7.3c1.5,3.9,4.4,8.5,8.1,6.6c9.8-5.1,19.8-5.1,33-0.2c2.4,0.9,4.8-1.7,5.5-4.2c0.8-2.6,2.3-6.1,5.3-9.6
			c12.7-14.6,25.5-24.2,31.8-36.1l0,0c7.2-10.7,11.6-23.4,12.3-37.2V72c0-0.3,0-0.5,0-0.8C146.8,49.9,136.7,28.3,125.3,15z"/>
	</g>
</g>
</svg>
