<?xml version="1.0" encoding="utf-8"?>
<!-- Generator: Adobe Illustrator 21.0.0, SVG Export Plug-In . SVG Version: 6.00 Build 0)  -->
<svg version="1.1" id="Camada_1" xmlns="http://www.w3.org/2000/svg" xmlns:xlink="http://www.w3.org/1999/xlink" x="0px" y="0px"
	 viewBox="0 0 884.9 319.2" style="enable-background:new 0 0 884.9 319.2;" xml:space="preserve">
<style type="text/css">
	.st0{fill:url(#SVGID_1_);}
	.st1{fill:#F3CA40;}
	.st2{fill:#FFFFFF;}
</style>
<linearGradient id="SVGID_1_" gradientUnits="userSpaceOnUse" x1="0" y1="159.5967" x2="884.8773" y2="159.5967">
	<stop  offset="0" style="stop-color:#0F33B1"/>
	<stop  offset="1" style="stop-color:#EB1FA4"/>
</linearGradient>
<path class="st0" d="M884.9,138.9c0-11.7-6.2-22.5-16.4-28.4l-24.9-14.4c-5.7-4.6-12.9-7.4-20.8-7.4h-4.5c-2.3,0-4.4,0.2-6.6,0.7
	l-35.2-71.2C771.1,7.1,759.7,0,747.2,0h-6.3c-12.4,0-23.7,7-29.3,18.1l-29.6,59V48.7c0-13-4.9-25-13.8-33.9
	C659.2,5.9,647.2,1,634.2,1c-12.8,0-24.8,4.9-33.8,13.9c0,0,0,0,0,0c-5.4,5.4-9.3,11.8-11.6,18.9h-4.6c-2.3-7.1-6.2-13.6-11.5-19
	C563.8,5.9,551.8,1,538.8,1c-13,0-25,4.9-33.9,13.8c-8.9,8.9-13.8,20.9-13.8,33.9v66.7c-0.4,0-0.9,0-1.3,0h-19.1V48.7
	c0-13-4.9-25-13.8-33.9C448,5.9,436,1,423,1c-8.9,0-17.4,2.4-24.7,6.8C390.9,3.4,382.5,1,373.8,1c-12.4,0-24.2,4.8-33.1,13.4
	C327.5,5.5,312.6,1,296.3,1h-62.7c-5.5,0-10.7,1.4-15.2,3.7C212.5,2.3,206,1,199.3,1H84.9c-13.1,0-25.2,4.9-34,13.7
	c-8.8,8.8-13.7,20.9-13.7,34c0,13,4.9,25,13.8,33.9c8.9,8.9,20.9,13.8,33.9,13.8h9.5v55.3c-8.9-7.5-20.5-12.1-33-12.1
	c-6.4,0-12.4,1.2-18.1,3.3c-8.8-3-18.7-2.1-26.9,2.6C6.2,151.5,0,162.3,0,174v34.4c0,11.7,6.2,22.5,16.4,28.4
	c5.1,2.9,10.7,4.4,16.4,4.4c3.7,0,7.5-0.7,11-1.9c5.5,2,11.4,3.1,17.6,3.1c12.7,0,24.4-4.7,33.4-12.4h18.7c10.5,0,20.2-2.5,28.7-7.2
	c8.5,4.8,18.1,7.2,28.5,7.2h26c-2.7,7.4-4.1,15.2-4.1,23.2c0,8.9,1.7,17.5,4.9,25.5c3.3,8,7.9,15.1,13.8,21
	c5.9,6,12.9,10.8,20.8,14.2c8.1,3.5,16.8,5.2,26,5.2c5.2,0,10.3-0.5,14.9-1.5c5.1-1.1,9.9-2.7,14.4-4.9c3.8-1.9,7.5-4.1,10.9-6.6
	c6,7.3,15.1,11.9,25.3,11.9h45c6.2,0,12-1.7,17-4.7c5,3,10.9,4.7,16.9,4.7h11.6c8.2,0,15.9-3.1,21.8-8.3c5.9,5.2,13.6,8.3,21.8,8.3
	h11.9c7,0,13.8-2.3,19.3-6.3c5.4,4,12.1,6.3,19.3,6.3h11.2c5.4,0,10.5-1.3,15-3.6c4.6,2.4,9.7,3.6,15,3.6h13.3
	c6.1,0,11.9-1.7,17-4.7c5,3,10.9,4.7,17,4.7h11.6c8.2,0,15.9-3.1,21.8-8.3c5.9,5.2,13.6,8.3,21.8,8.3h11.9
	c11.1,0,21.4-5.6,27.4-14.8c6.1-9.3,7-20.9,2.6-31.1l-18.6-42.6c10.4-1.6,19.5-8.1,24.3-17.7l20.6-41.2c4.4,1.3,9,1.9,13.8,1.9H768
	l3,6c-1,4-1.5,8.1-1.5,12.4c0,28.3,23,51.4,51.4,51.4c28.3,0,51.4-23,51.4-51.4c0-8.2-1.9-15.9-5.3-22.8l1.6-0.9
	C878.6,161.5,884.9,150.7,884.9,138.9z M276.7,189.3c0-0.3,0.1-0.7,0.1-1l1.5,1.5C277.8,189.6,277.3,189.5,276.7,189.3z"/>
<g>
	<circle class="st1" cx="61.4" cy="191" r="18.6"/>
	<circle class="st1" cx="820.9" cy="191" r="18.6"/>
	<g>
		<path class="st1" d="M74.1,37.9c2.7-2.7,6.3-4.1,10.8-4.1h114.4c4.5,0,8.1,1.4,10.8,4.1c2.7,2.7,4.1,6.3,4.1,10.8
			c0,4.5-1.4,8.1-4.1,10.8c-2.7,2.7-6.3,4.1-10.8,4.1H157v109.1c0,9.1,4.6,13.7,13.7,13.7h53.1v10.8h-53.1c-7.1,0-12.9-2.3-17.6-6.9
			c-4.6-4.6-6.9-10.5-6.9-17.6V52.8h53.1c2.9,0,4.3-1.4,4.3-4.1c0-2.7-1.4-4.1-4.3-4.1H84.9c-2.9,0-4.3,1.4-4.3,4.1
			c0,2.7,1.4,4.1,4.3,4.1H138v119.9c0,7.2-2.3,13.1-6.8,17.7c-4.6,4.6-10.5,6.8-17.7,6.8H60.4v-10.8h53.1c9.1,0,13.7-4.6,13.7-13.7
			V63.6H84.9c-4.4,0-7.9-1.4-10.7-4.2c-2.8-2.8-4.2-6.4-4.2-10.7C70,44.2,71.4,40.6,74.1,37.9z"/>
		<path class="st1" d="M349.5,186.4v10.8h-17.2L254.9,120v-9.8h41.5c5.4,0,11.1-1.5,17-4.5c10.5-5.4,15.7-14.9,15.7-28.4
			s-5.2-22.9-15.7-28.4c-5.6-2.9-11.2-4.3-17-4.3h-51.9v137.7c0,4.4-1.4,7.9-4.2,10.7c-2.8,2.8-6.4,4.2-10.7,4.2H224v-10.6l5.3-0.2
			c2.9-0.1,4.3-1.5,4.3-4.1V33.8h62.7c10.2,0,19.3,2.9,27.4,8.8c10.8,7.9,16.1,19.5,16.1,34.7c0,15.3-5.4,26.8-16.1,34.7
			c-8,5.9-17.2,8.8-27.4,8.8H271l65.6,65.6H349.5z"/>
		<path class="st1" d="M398.3,186.6l0.2,10.4l-5.5,0.2c-4.4,0.1-8-1.2-10.8-4.1c-2.9-2.9-4.3-6.5-4.3-10.8V67.9
			c0-2.9-1.4-4.3-4.1-4.3c-2.7,0-4.1,1.4-4.1,4.1v114.6c0,4.4-1.4,7.9-4.2,10.7c-2.8,2.8-6.4,4.2-10.7,4.2h-5.5v-10.6l5.3-0.2
			c2.9-0.1,4.3-1.5,4.3-4.1V67.7c0-3.5,1.1-6.7,3.3-9.6c-2.2-2.7-3.3-5.9-3.3-9.4c0-4.1,1.5-7.6,4.4-10.5c2.9-2.9,6.4-4.4,10.5-4.4
			c4.1,0,7.6,1.5,10.5,4.4c2.9,2.9,4.4,6.4,4.4,10.5c0,3.5-1.1,6.7-3.3,9.4c2.2,2.9,3.3,6.1,3.3,9.6v114.6c0,2.6,1.4,4,4.3,4.1
			L398.3,186.6z M369.7,48.7c0,2.7,1.4,4.1,4.1,4.1c2.7,0,4.1-1.4,4.1-4.1c0-2.7-1.4-4.1-4.1-4.1C371,44.6,369.7,46,369.7,48.7z"/>
		<path class="st1" d="M412.4,38.1c2.9-2.9,6.4-4.3,10.6-4.3c4.4,0,7.9,1.4,10.7,4.2c2.8,2.8,4.2,6.4,4.2,10.7v85.8
			c0,4.2,1.2,7.6,3.7,10c2.5,2.5,5.8,3.7,10,3.7h38.2c4.4,0,7.9,1.4,10.7,4.3c2.8,2.9,4.2,6.5,4.2,10.8c0,4.4-1.4,7.9-4.2,10.7
			c-2.8,2.8-6.4,4.2-10.7,4.2h-47.6c-2.9,0-4.3,1.4-4.3,4.1c0,2.7,1.4,4.1,4.3,4.1h72.1v10.8h-72.1c-4.4,0-8-1.4-10.8-4.2
			c-2.9-2.8-4.3-6.4-4.3-10.7c0-4.4,1.4-7.9,4.3-10.7c2.9-2.8,6.5-4.2,10.8-4.2h47.6c2.7,0,4.1-1.3,4.1-4c0-2.8-1.4-4.2-4.1-4.2
			h-38.2c-7.1,0-12.9-2.3-17.6-7c-4.6-4.6-6.9-10.5-6.9-17.6v-86c0-2.7-1.4-4.1-4.1-4.1c-2.7,0-4.1,1.4-4.1,4.1v133.6
			c0,4.4-1.4,7.9-4.2,10.7c-2.8,2.8-6.4,4.2-10.7,4.2h-5.5v-10.8h5.3c2.9-0.1,4.3-1.5,4.3-4.1V48.7C408.1,44.5,409.5,41,412.4,38.1z
			"/>
		<path class="st1" d="M623.6,38.1c2.9-2.9,6.4-4.3,10.6-4.3c4.4,0,7.9,1.4,10.7,4.2c2.8,2.8,4.2,6.4,4.2,10.7v133.6
			c0,2.7,1.4,4.1,4.3,4.1h5.3v10.8h-5.3c-4.4,0-7.9-1.4-10.7-4.2c-2.8-2.8-4.2-6.4-4.2-10.7V48.7c0-2.7-1.4-4.1-4.2-4.1
			c-2.7,0-4,1.4-4,4.1v47.8c0,7.2-2.3,13.1-6.9,17.6c-4.6,4.5-10.5,6.7-17.7,6.7h-38.3c-7.2,0-13.1-2.2-17.7-6.7
			c-4.6-4.5-6.9-10.3-6.9-17.6V48.7c0-2.7-1.4-4.1-4.1-4.1c-2.7,0-4.1,1.4-4.1,4.1v133.6c0,4.4-1.4,7.9-4.2,10.7
			c-2.8,2.8-6.4,4.2-10.7,4.2h-5.5v-10.6l5.3-0.2c2.9-0.1,4.3-1.5,4.3-4.1V48.7c0-4.4,1.4-7.9,4.2-10.7c2.8-2.8,6.4-4.2,10.7-4.2
			c4.4,0,7.9,1.4,10.7,4.2c2.8,2.8,4.2,6.4,4.2,10.7v47.6c0,4.2,1.2,7.6,3.7,10.1c2.5,2.5,5.8,3.8,10,3.8h38.2
			c4.1,0,7.4-1.3,9.9-3.8c2.5-2.5,3.8-5.8,3.8-9.9V48.7C619.3,44.5,620.7,41,623.6,38.1z"/>
		<path class="st1" d="M747.2,32.8l43.5,88h-56.6c-2.9,0-4.3,1.3-4.3,4c0,2.8,1.4,4.2,4.3,4.2H795l28.6,57.4h5.3v10.8h-11.8
			l-28.8-57.4h-54.1c-4.4,0-7.9-1.4-10.7-4.3c-2.8-2.9-4.2-6.5-4.2-10.8c0-4.5,1.4-8.1,4.1-10.8c2.7-2.7,6.3-4.1,10.8-4.1h39.2
			l-29.6-59.2l-73.3,146.7h-11.8v-10.8h5.1l77.2-153.6H747.2z"/>
	</g>
	<polygon class="st2" points="62.6,191.2 47.7,199.8 32.8,208.4 32.8,191.2 32.8,174 47.7,182.6 	"/>
	<polygon class="st1" points="852.1,139 837.2,147.6 822.3,156.2 822.3,139 822.3,121.7 837.2,130.3 	"/>
	<g>
		<rect x="818.3" y="121.6" class="st2" width="4.5" height="71.4"/>
	</g>
	<g>
		<path class="st2" d="M279,279.7c-1.8,1.4-3.8,2.6-5.8,3.6c-2.1,1-4.4,1.8-6.8,2.3c-2.5,0.5-5.2,0.8-8.2,0.8
			c-4.7,0-9.1-0.9-13.1-2.6c-4-1.7-7.4-4.1-10.3-7c-2.9-3-5.2-6.5-6.8-10.5c-1.7-4-2.5-8.4-2.5-13.1c0-4.6,0.8-8.9,2.4-13
			c1.6-4,3.9-7.6,6.8-10.6s6.4-5.4,10.5-7.2c4-1.7,8.5-2.6,13.4-2.6c2.9,0,5.6,0.2,8,0.7c2.4,0.5,4.6,1.2,6.7,2.1
			c2,0.9,3.9,1.9,5.6,3.2c1.7,1.2,3.3,2.6,4.9,4l-7.3,8.4c-2.6-2.4-5.3-4.3-8.2-5.8c-2.9-1.5-6.2-2.2-9.8-2.2
			c-3.1,0-5.9,0.6-8.5,1.8c-2.6,1.2-4.9,2.8-6.8,4.9c-1.9,2.1-3.4,4.5-4.4,7.2c-1,2.8-1.6,5.7-1.6,8.9c0,3.2,0.5,6.2,1.6,9
			c1,2.8,2.5,5.2,4.4,7.3c1.9,2.1,4.2,3.7,6.8,4.9c2.6,1.2,5.4,1.8,8.5,1.8c3.9,0,7.3-0.7,10.1-2.3c2.8-1.5,5.6-3.5,8.4-6.1l7.3,7.4
			C282.6,276.8,280.8,278.4,279,279.7z"/>
		<path class="st2" d="M323.6,221h11.2v54.1h33.8v10.2h-45V221z"/>
		<path class="st2" d="M469.7,285.3h-11.9l-6.5-15.5h-30.4l-6.6,15.5h-11.6l28.3-64.8h10.5L469.7,285.3z M436,234l-11,25.7h22.2
			L436,234z"/>
		<path class="st2" d="M549.6,285.3l-15.9-22.4h-14.2v22.4h-11.2V221H537c3.7,0,7,0.5,10,1.4c3,1,5.5,2.3,7.5,4
			c2.1,1.7,3.6,3.9,4.7,6.4c1.1,2.5,1.7,5.4,1.7,8.5c0,2.7-0.4,5.1-1.1,7.2c-0.8,2.1-1.8,4-3.2,5.6c-1.3,1.6-3,3-4.8,4.1
			c-1.9,1.1-3.9,2-6.2,2.6l17.4,24.4H549.6z M545.9,233.9c-2.3-1.8-5.6-2.7-9.9-2.7h-16.5v21.7h16.6c4.1,0,7.3-1,9.7-3
			c2.4-2,3.6-4.6,3.6-7.9C549.4,238.4,548.2,235.7,545.9,233.9z"/>
		<path class="st2" d="M663.9,285.3H652l-6.5-15.5H615l-6.6,15.5h-11.6l28.3-64.8h10.5L663.9,285.3z M630.2,234l-11,25.7h22.2
			L630.2,234z"/>
	</g>
</g>
<g>
</g>
<g>
</g>
<g>
</g>
<g>
</g>
<g>
</g>
<g>
</g>
</svg>
