<?xml version="1.0" encoding="utf-8"?>
<!-- Generator: Adobe Illustrator 22.1.0, SVG Export Plug-In . SVG Version: 6.00 Build 0)  -->
<svg version="1.1" id="Camada_1" xmlns="http://www.w3.org/2000/svg" xmlns:xlink="http://www.w3.org/1999/xlink" x="0px" y="0px"
	 viewBox="0 0 277.3 100" style="enable-background:new 0 0 277.3 100;" xml:space="preserve">
<style type="text/css">
	.st0{fill:url(#SVGID_1_);}
	.st1{fill:#F3CA40;}
	.st2{fill:#FFFFFF;}
</style>
<linearGradient id="SVGID_1_" gradientUnits="userSpaceOnUse" x1="0" y1="52.9" x2="277.3112" y2="52.9" gradientTransform="matrix(1 0 0 -1 0 102.9)">
	<stop  offset="0" style="stop-color:#0F33B1"/>
	<stop  offset="1" style="stop-color:#EB1FA4"/>
</linearGradient>
<path class="st0" d="M277.3,43.5c0-3.7-1.9-7.1-5.1-8.9l-7.8-4.5c-1.8-1.4-4-2.3-6.5-2.3h-1.4c-0.7,0-1.4,0.1-2.1,0.2l-11-22.3
	c-1.7-3.5-5.3-5.7-9.2-5.7h-2c-3.9,0-7.4,2.2-9.2,5.7l-9.3,18.5v-8.9c0-4.1-1.5-7.8-4.3-10.6c-2.8-2.8-6.6-4.3-10.7-4.3
	c-4,0-7.8,1.5-10.6,4.4l0,0c-1.7,1.7-2.9,3.7-3.6,5.9h-1.4c-0.7-2.2-1.9-4.3-3.6-6c-2.8-2.8-6.5-4.3-10.6-4.3s-7.8,1.5-10.6,4.3
	s-4.3,6.5-4.3,10.6v20.9c-0.1,0-0.3,0-0.4,0h-6V15.3c0-4.1-1.5-7.8-4.3-10.6s-6.5-4.3-10.6-4.3c-2.8,0-5.5,0.8-7.7,2.1
	c-2.3-1.4-5-2.1-7.7-2.1c-3.9,0-7.6,1.5-10.4,4.2c-4.1-2.8-8.8-4.2-13.9-4.2H73.2c-1.7,0-3.4,0.4-4.8,1.2c-1.8-0.8-3.9-1.2-6-1.2
	H26.6c-4.1,0-7.9,1.5-10.7,4.3s-4.3,6.5-4.3,10.7c0,4.1,1.5,7.8,4.3,10.6s6.5,4.3,10.6,4.3h3v17.3c-2.8-2.4-6.4-3.8-10.3-3.8
	c-2,0-3.9,0.4-5.7,1c-2.8-0.9-5.9-0.7-8.4,0.8C1.9,47.5,0,50.9,0,54.5v10.8c0,3.7,1.9,7.1,5.1,8.9c1.6,0.9,3.4,1.4,5.1,1.4
	c1.2,0,2.4-0.2,3.4-0.6c1.7,0.6,3.6,1,5.5,1c4,0,7.6-1.5,10.5-3.9h5.9c3.3,0,6.3-0.8,9-2.3c2.7,1.5,5.7,2.3,8.9,2.3h8.1
	c-0.8,2.3-1.3,4.8-1.3,7.3c0,2.8,0.5,5.5,1.5,8c1,2.5,2.5,4.7,4.3,6.6c1.8,1.9,4,3.4,6.5,4.5c2.5,1.1,5.3,1.6,8.1,1.6
	c1.6,0,3.2-0.2,4.7-0.5c1.6-0.3,3.1-0.8,4.5-1.5c1.2-0.6,2.4-1.3,3.4-2.1c1.9,2.3,4.7,3.7,7.9,3.7h14.1c1.9,0,3.8-0.5,5.3-1.5
	c1.6,0.9,3.4,1.5,5.3,1.5h3.6c2.6,0,5-1,6.8-2.6c1.8,1.6,4.3,2.6,6.8,2.6h3.7c2.2,0,4.3-0.7,6-2c1.7,1.3,3.8,2,6,2h3.5
	c1.7,0,3.3-0.4,4.7-1.1c1.4,0.8,3,1.1,4.7,1.1h4.2c1.9,0,3.7-0.5,5.3-1.5c1.6,0.9,3.4,1.5,5.3,1.5h3.6c2.6,0,5-1,6.8-2.6
	c1.8,1.6,4.3,2.6,6.8,2.6h3.7c3.5,0,6.7-1.8,8.6-4.6c1.9-2.9,2.2-6.5,0.8-9.7l-5.8-13.4c3.3-0.5,6.1-2.5,7.6-5.5l6.5-12.9
	c1.4,0.4,2.8,0.6,4.3,0.6h10.7l0.9,1.9c-0.3,1.3-0.5,2.5-0.5,3.9c0,8.9,7.2,16.1,16.1,16.1c8.9,0,16.1-7.2,16.1-16.1
	c0-2.6-0.6-5-1.7-7.1l0.5-0.3C275.3,50.6,277.3,47.2,277.3,43.5z M86.7,59.3c0-0.1,0-0.2,0-0.3l0.5,0.5
	C87.1,59.4,86.9,59.4,86.7,59.3z"/>
<g>
	<circle class="st1" cx="19.2" cy="59.9" r="5.8"/>
	<circle class="st1" cx="257.3" cy="59.9" r="5.8"/>
	<g>
		<path class="st1" d="M23.2,11.9c0.8-0.8,2-1.3,3.4-1.3h35.9c1.4,0,2.5,0.4,3.4,1.3c0.8,0.8,1.3,2,1.3,3.4s-0.4,2.5-1.3,3.4
			c-0.8,0.8-2,1.3-3.4,1.3H49.2v34.2c0,2.9,1.4,4.3,4.3,4.3h16.6v3.4H53.5c-2.2,0-4-0.7-5.5-2.2c-1.4-1.4-2.2-3.3-2.2-5.5V16.5h16.6
			c0.9,0,1.3-0.4,1.3-1.3c0-0.8-0.4-1.3-1.3-1.3H26.6c-0.9,0-1.3,0.4-1.3,1.3c0,0.8,0.4,1.3,1.3,1.3h16.6v37.6
			c0,2.3-0.7,4.1-2.1,5.5c-1.4,1.4-3.3,2.1-5.5,2.1H18.9v-3.4h16.6c2.9,0,4.3-1.4,4.3-4.3V19.9H26.6c-1.4,0-2.5-0.4-3.4-1.3
			c-0.9-0.9-1.3-2-1.3-3.4C21.9,13.9,22.4,12.7,23.2,11.9z"/>
		<path class="st1" d="M109.5,58.4v3.4h-5.4L79.9,37.6v-3.1h13c1.7,0,3.5-0.5,5.3-1.4c3.3-1.7,4.9-4.7,4.9-8.9s-1.6-7.2-4.9-8.9
			c-1.8-0.9-3.5-1.3-5.3-1.3H76.6v43.2c0,1.4-0.4,2.5-1.3,3.4c-0.9,0.9-2,1.3-3.4,1.3h-1.8v-3.3l1.7-0.1c0.9,0,1.3-0.5,1.3-1.3V10.6
			h19.6c3.2,0,6,0.9,8.6,2.8c3.4,2.5,5,6.1,5,10.9c0,4.8-1.7,8.4-5,10.9c-2.5,1.8-5.4,2.8-8.6,2.8h-7.9l20.6,20.6H109.5z"/>
		<path class="st1" d="M124.8,58.5l0.1,3.3l-1.7,0.1c-1.4,0-2.5-0.4-3.4-1.3c-0.9-0.9-1.3-2-1.3-3.4V21.3c0-0.9-0.4-1.3-1.3-1.3
			c-0.8,0-1.3,0.4-1.3,1.3v35.9c0,1.4-0.4,2.5-1.3,3.4c-0.9,0.9-2,1.3-3.4,1.3h-1.7v-3.3l1.7-0.1c0.9,0,1.3-0.5,1.3-1.3V21.2
			c0-1.1,0.3-2.1,1-3c-0.7-0.8-1-1.8-1-2.9c0-1.3,0.5-2.4,1.4-3.3c0.9-0.9,2-1.4,3.3-1.4s2.4,0.5,3.3,1.4c0.9,0.9,1.4,2,1.4,3.3
			c0,1.1-0.3,2.1-1,2.9c0.7,0.9,1,1.9,1,3v35.9c0,0.8,0.4,1.3,1.3,1.3L124.8,58.5z M115.9,15.3c0,0.8,0.4,1.3,1.3,1.3
			c0.8,0,1.3-0.4,1.3-1.3c0-0.8-0.4-1.3-1.3-1.3C116.3,14,115.9,14.4,115.9,15.3z"/>
		<path class="st1" d="M129.2,11.9c0.9-0.9,2-1.3,3.3-1.3c1.4,0,2.5,0.4,3.4,1.3c0.9,0.9,1.3,2,1.3,3.4v26.9c0,1.3,0.4,2.4,1.2,3.1
			c0.8,0.8,1.8,1.2,3.1,1.2h12c1.4,0,2.5,0.4,3.4,1.3c0.9,0.9,1.3,2,1.3,3.4c0,1.4-0.4,2.5-1.3,3.4c-0.9,0.9-2,1.3-3.4,1.3h-14.9
			c-0.9,0-1.3,0.4-1.3,1.3c0,0.8,0.4,1.3,1.3,1.3h22.6v3.4h-22.6c-1.4,0-2.5-0.4-3.4-1.3c-0.9-0.9-1.3-2-1.3-3.4
			c0-1.4,0.4-2.5,1.3-3.4c0.9-0.9,2-1.3,3.4-1.3h14.9c0.8,0,1.3-0.4,1.3-1.3c0-0.9-0.4-1.3-1.3-1.3h-12c-2.2,0-4-0.7-5.5-2.2
			c-1.4-1.4-2.2-3.3-2.2-5.5v-27c0-0.8-0.4-1.3-1.3-1.3s-1.3,0.4-1.3,1.3v41.9c0,1.4-0.4,2.5-1.3,3.4c-0.9,0.9-2,1.3-3.4,1.3h-1.7
			v-3.4h1.7c0.9,0,1.3-0.5,1.3-1.3V15.3C127.9,13.9,128.3,12.8,129.2,11.9z"/>
		<path class="st1" d="M195.4,11.9c0.9-0.9,2-1.3,3.3-1.3c1.4,0,2.5,0.4,3.4,1.3c0.9,0.9,1.3,2,1.3,3.4v41.9c0,0.8,0.4,1.3,1.3,1.3
			h1.7v3.4h-1.7c-1.4,0-2.5-0.4-3.4-1.3c-0.9-0.9-1.3-2-1.3-3.4V15.3c0-0.8-0.4-1.3-1.3-1.3c-0.8,0-1.3,0.4-1.3,1.3v15
			c0,2.3-0.7,4.1-2.2,5.5c-1.4,1.4-3.3,2.1-5.5,2.1h-12c-2.3,0-4.1-0.7-5.5-2.1c-1.4-1.4-2.2-3.2-2.2-5.5v-15c0-0.8-0.4-1.3-1.3-1.3
			c-0.8,0-1.3,0.4-1.3,1.3v41.9c0,1.4-0.4,2.5-1.3,3.4c-0.9,0.9-2,1.3-3.4,1.3h-1.7v-3.3l1.7-0.1c0.9,0,1.3-0.5,1.3-1.3V15.3
			c0-1.4,0.4-2.5,1.3-3.4c0.9-0.9,2-1.3,3.4-1.3c1.4,0,2.5,0.4,3.4,1.3c0.9,0.9,1.3,2,1.3,3.4v14.9c0,1.3,0.4,2.4,1.2,3.2
			c0.8,0.8,1.8,1.2,3.1,1.2h12c1.3,0,2.3-0.4,3.1-1.2c0.8-0.8,1.2-1.8,1.2-3.1v-15C194.1,13.9,194.5,12.8,195.4,11.9z"/>
		<path class="st1" d="M234.2,10.3l13.6,27.6h-17.7c-0.9,0-1.3,0.4-1.3,1.3c0,0.9,0.4,1.3,1.3,1.3h19.1l9,18h1.7v3.4h-3.7l-9-18h-17
			c-1.4,0-2.5-0.4-3.4-1.3c-0.9-0.9-1.3-2-1.3-3.4c0-1.4,0.4-2.5,1.3-3.4c0.8-0.8,2-1.3,3.4-1.3h12.3l-9.3-18.6l-23,46h-3.7v-3.4
			h1.6l24.2-48.1L234.2,10.3L234.2,10.3z"/>
	</g>
	<polygon class="st2" points="19.6,59.9 14.9,62.6 10.3,65.3 10.3,59.9 10.3,54.5 14.9,57.2 	"/>
	<polygon class="st1" points="267,43.6 262.4,46.3 257.7,49 257.7,43.6 257.7,38.1 262.4,40.8 	"/>
	<g>
		<rect x="256.4" y="38.1" class="st2" width="1.4" height="22.4"/>
	</g>
	<g>
		<path class="st2" d="M87.4,87.7c-0.6,0.4-1.2,0.8-1.8,1.1c-0.7,0.3-1.4,0.6-2.1,0.7c-0.8,0.2-1.6,0.3-2.6,0.3
			c-1.5,0-2.9-0.3-4.1-0.8s-2.3-1.3-3.2-2.2c-0.9-0.9-1.6-2-2.1-3.3c-0.5-1.3-0.8-2.6-0.8-4.1c0-1.4,0.3-2.8,0.8-4.1
			c0.5-1.3,1.2-2.4,2.1-3.3c0.9-0.9,2-1.7,3.3-2.3c1.3-0.5,2.7-0.8,4.2-0.8c0.9,0,1.8,0.1,2.5,0.2s1.4,0.4,2.1,0.7
			c0.6,0.3,1.2,0.6,1.8,1c0.5,0.4,1,0.8,1.5,1.3l-2.3,2.6c-0.8-0.8-1.7-1.3-2.6-1.8c-0.9-0.5-1.9-0.7-3.1-0.7c-1,0-1.8,0.2-2.7,0.6
			c-0.8,0.4-1.5,0.9-2.1,1.5c-0.6,0.7-1.1,1.4-1.4,2.3c-0.3,0.9-0.5,1.8-0.5,2.8c0,1,0.2,1.9,0.5,2.8c0.3,0.9,0.8,1.6,1.4,2.3
			c0.6,0.7,1.3,1.2,2.1,1.5c0.8,0.4,1.7,0.6,2.7,0.6c1.2,0,2.3-0.2,3.2-0.7c0.9-0.5,1.8-1.1,2.6-1.9l2.3,2.3
			C88.6,86.7,88,87.2,87.4,87.7z"/>
		<path class="st2" d="M101.4,69.3h3.5v17h10.6v3.2h-14.1V69.3z"/>
		<path class="st2" d="M147.2,89.4h-3.7l-2-4.9h-9.5l-2.1,4.9h-3.6l8.9-20.3h3.3L147.2,89.4z M136.6,73.3l-3.4,8.1h7L136.6,73.3z"/>
		<path class="st2" d="M172.2,89.4l-5-7h-4.5v7h-3.5V69.3h9c1.2,0,2.2,0.2,3.1,0.4c0.9,0.3,1.7,0.7,2.4,1.3c0.7,0.5,1.1,1.2,1.5,2
			c0.3,0.8,0.5,1.7,0.5,2.7c0,0.8-0.1,1.6-0.3,2.3c-0.3,0.7-0.6,1.3-1,1.8c-0.4,0.5-0.9,0.9-1.5,1.3c-0.6,0.3-1.2,0.6-1.9,0.8
			l5.5,7.6L172.2,89.4L172.2,89.4z M171.1,73.3c-0.7-0.6-1.8-0.8-3.1-0.8h-5.2v6.8h5.2c1.3,0,2.3-0.3,3-0.9s1.1-1.4,1.1-2.5
			C172.2,74.7,171.8,73.9,171.1,73.3z"/>
		<path class="st2" d="M208.1,89.4h-3.7l-2-4.9h-9.6l-2.1,4.9H187l8.9-20.3h3.3L208.1,89.4z M197.5,73.3l-3.4,8.1h7L197.5,73.3z"/>
	</g>
</g>
</svg>
